name rise37.2698peak67.6939fall79.5734.mot
datacolumns 19
datarows 21
range 9.63829700000000 9.67163400000000
endheader
time	ground_force1_vx	ground_force1_vy	ground_force1_vz	ground_force1_px	ground_force1_py	ground_force1_pz	ground_force2_vx	ground_force2_vy	ground_force2_vz	ground_force2_px	ground_force2_py	ground_force2_pz	ground_torque1_x	ground_torque1_y	ground_torque1_z	ground_torque2_x	ground_torque2_y	ground_torque2_z	
9.63829700000000	-0.17744500000000	722.70273899999995	40.34587000000000	0.21434000000000	0.00000000000000	0.10656900000000	0.00000000000000	0.00000000000000	0.00000000000000	0.00000000000000	0.00000000000000	0.00000000000000	0.00000000000000	16.09494800000000	0.00000000000000	0.00000000000000	0.00000000000000	0.00000000000000	
9.63997000000000	-0.57813500000000	723.43817600000000	40.31774600000000	0.21343800000000	0.00000000000000	0.10655900000000	0.00000000000000	0.00000000000000	0.00000000000000	0.00000000000000	0.00000000000000	0.00000000000000	0.00000000000000	16.12454200000000	0.00000000000000	0.00000000000000	0.00000000000000	0.00000000000000	
9.64163300000000	-0.98375700000000	724.19263000000001	40.29077000000000	0.21252100000000	0.00000000000000	0.10655000000000	0.00000000000000	0.00000000000000	0.00000000000000	0.00000000000000	0.00000000000000	0.00000000000000	0.00000000000000	16.15612700000000	0.00000000000000	0.00000000000000	0.00000000000000	0.00000000000000	
9.64329700000000	-1.39432300000000	724.96558800000003	40.26490300000000	0.21159000000000	0.00000000000000	0.10654100000000	0.00000000000000	0.00000000000000	0.00000000000000	0.00000000000000	0.00000000000000	0.00000000000000	0.00000000000000	16.18966600000000	0.00000000000000	0.00000000000000	0.00000000000000	0.00000000000000	
9.64496500000000	-1.80982400000000	725.75656300000003	40.24011900000000	0.21064700000000	0.00000000000000	0.10653300000000	0.00000000000000	0.00000000000000	0.00000000000000	0.00000000000000	0.00000000000000	0.00000000000000	0.00000000000000	16.22511900000000	0.00000000000000	0.00000000000000	0.00000000000000	0.00000000000000	
9.64662800000000	-2.23022200000000	726.56509900000003	40.21640300000000	0.20969200000000	0.00000000000000	0.10652600000000	0.00000000000000	0.00000000000000	0.00000000000000	0.00000000000000	0.00000000000000	0.00000000000000	0.00000000000000	16.26245400000000	0.00000000000000	0.00000000000000	0.00000000000000	0.00000000000000	
9.64830100000000	-2.65546000000000	727.39076899999998	40.19375500000000	0.20872600000000	0.00000000000000	0.10652000000000	0.00000000000000	0.00000000000000	0.00000000000000	0.00000000000000	0.00000000000000	0.00000000000000	0.00000000000000	16.30163500000000	0.00000000000000	0.00000000000000	0.00000000000000	0.00000000000000	
9.64996800000000	-3.08545500000000	728.23317499999996	40.17218400000000	0.20775100000000	0.00000000000000	0.10651500000000	0.00000000000000	0.00000000000000	0.00000000000000	0.00000000000000	0.00000000000000	0.00000000000000	0.00000000000000	16.34263000000000	0.00000000000000	0.00000000000000	0.00000000000000	0.00000000000000	
9.65162800000000	-3.52010500000000	729.09194600000001	40.15171400000000	0.20676900000000	0.00000000000000	0.10651000000000	0.00000000000000	0.00000000000000	0.00000000000000	0.00000000000000	0.00000000000000	0.00000000000000	0.00000000000000	16.38540800000000	0.00000000000000	0.00000000000000	0.00000000000000	0.00000000000000	
9.65329400000000	-3.95928500000000	729.96674099999996	40.13237600000000	0.20577900000000	0.00000000000000	0.10650500000000	0.00000000000000	0.00000000000000	0.00000000000000	0.00000000000000	0.00000000000000	0.00000000000000	0.00000000000000	16.42993700000000	0.00000000000000	0.00000000000000	0.00000000000000	0.00000000000000	
9.65496900000000	-4.40285400000000	730.85724400000004	40.11421600000000	0.20478500000000	0.00000000000000	0.10650200000000	0.00000000000000	0.00000000000000	0.00000000000000	0.00000000000000	0.00000000000000	0.00000000000000	0.00000000000000	16.47618400000000	0.00000000000000	0.00000000000000	0.00000000000000	0.00000000000000	
9.65663300000000	-4.85064900000000	731.76316799999995	40.09728900000000	0.20378600000000	0.00000000000000	0.10649800000000	0.00000000000000	0.00000000000000	0.00000000000000	0.00000000000000	0.00000000000000	0.00000000000000	0.00000000000000	16.52411800000000	0.00000000000000	0.00000000000000	0.00000000000000	0.00000000000000	
9.65830100000000	-5.30249400000000	732.68424800000003	40.08166200000000	0.20278600000000	0.00000000000000	0.10649500000000	0.00000000000000	0.00000000000000	0.00000000000000	0.00000000000000	0.00000000000000	0.00000000000000	0.00000000000000	16.57370600000000	0.00000000000000	0.00000000000000	0.00000000000000	0.00000000000000	
9.65996900000000	-5.75819700000000	733.62024799999995	40.06740900000000	0.20178400000000	0.00000000000000	0.10649300000000	0.00000000000000	0.00000000000000	0.00000000000000	0.00000000000000	0.00000000000000	0.00000000000000	0.00000000000000	16.62491500000000	0.00000000000000	0.00000000000000	0.00000000000000	0.00000000000000	
9.66163300000000	-6.21755000000000	734.57095200000003	40.05461700000000	0.20078300000000	0.00000000000000	0.10649000000000	0.00000000000000	0.00000000000000	0.00000000000000	0.00000000000000	0.00000000000000	0.00000000000000	0.00000000000000	16.67770900000000	0.00000000000000	0.00000000000000	0.00000000000000	0.00000000000000	
9.66330000000000	-6.68033400000000	735.53616699999998	40.04338200000000	0.19978400000000	0.00000000000000	0.10648800000000	0.00000000000000	0.00000000000000	0.00000000000000	0.00000000000000	0.00000000000000	0.00000000000000	0.00000000000000	16.73205200000000	0.00000000000000	0.00000000000000	0.00000000000000	0.00000000000000	
9.66497000000000	-7.14631900000000	736.51572199999998	40.03380700000000	0.19878800000000	0.00000000000000	0.10648700000000	0.00000000000000	0.00000000000000	0.00000000000000	0.00000000000000	0.00000000000000	0.00000000000000	0.00000000000000	16.78790600000000	0.00000000000000	0.00000000000000	0.00000000000000	0.00000000000000	
9.66662800000000	-7.61526400000000	737.50946299999998	40.02600700000000	0.19779700000000	0.00000000000000	0.10648500000000	0.00000000000000	0.00000000000000	0.00000000000000	0.00000000000000	0.00000000000000	0.00000000000000	0.00000000000000	16.84523100000000	0.00000000000000	0.00000000000000	0.00000000000000	0.00000000000000	
9.66829900000000	-8.08692100000000	738.51725499999998	40.02010300000000	0.19681200000000	0.00000000000000	0.10648400000000	0.00000000000000	0.00000000000000	0.00000000000000	0.00000000000000	0.00000000000000	0.00000000000000	0.00000000000000	16.90398500000000	0.00000000000000	0.00000000000000	0.00000000000000	0.00000000000000	
9.66996900000000	-8.56103500000000	739.53897800000004	40.01622500000000	0.19583400000000	0.00000000000000	0.10648200000000	0.00000000000000	0.00000000000000	0.00000000000000	0.00000000000000	0.00000000000000	0.00000000000000	0.00000000000000	16.96412400000000	0.00000000000000	0.00000000000000	0.00000000000000	0.00000000000000	
9.67163400000000	-9.03734400000000	740.57452699999999	40.01451200000000	0.19486500000000	0.00000000000000	0.10648100000000	0.00000000000000	0.00000000000000	0.00000000000000	0.00000000000000	0.00000000000000	0.00000000000000	0.00000000000000	17.02560200000000	0.00000000000000	0.00000000000000	0.00000000000000	0.00000000000000	
